<svg width="207" height="30" viewBox="0 0 207 30" fill="none" xmlns="http://www.w3.org/2000/svg">
<path d="M6.71856 12.574H7.48192C9.23905 12.574 10.739 12.5992 10.3912 14.921C10.0544 17.1679 8.43408 17.1679 6.79289 17.1679H6.0288L6.71856 12.574ZM0 27.1371H4.53405L5.44978 21.0286H8.01783C11.9743 21.0286 14.4792 19.1231 15.1325 14.7736C15.7651 10.547 13.4505 8.71484 9.70213 8.71484H2.76205L0 27.1371Z" fill="white"/>
<path d="M34.0245 9.60156L32.8687 17.3104H32.9074C33.8789 16.1803 34.9321 15.6559 36.2886 15.6559C38.7719 15.6559 39.7151 17.3918 39.3219 20.0143L38.372 26.3493H34.8949L35.6917 21.043C35.8724 19.8321 35.888 18.582 34.4928 18.582C33.1169 18.582 32.4896 19.8321 32.309 21.043L31.513 26.3493H28.0359L30.5482 9.60156H34.0245Z" fill="white"/>
<path d="M46.5854 18.8452C47.9991 18.8452 48.6607 19.9154 48.4689 21.1848C48.2719 22.4964 47.3005 23.5058 45.886 23.5058C44.473 23.5058 43.8033 22.4964 43.9995 21.1848C44.1891 19.9147 45.1717 18.8452 46.5854 18.8452ZM47.0626 15.6562C43.9111 15.6562 40.8614 17.6536 40.3299 21.184C39.8007 24.7159 42.2758 26.6941 45.408 26.6941C48.5603 26.6941 51.61 24.6959 52.137 21.184C52.6669 17.6544 50.2156 15.6562 47.0626 15.6562Z" fill="white"/>
<path d="M57.3819 17.2893H57.4199C58.4151 16.1398 59.5003 15.6562 60.7609 15.6562C62.1739 15.6562 63.3067 16.2613 63.8077 17.6322C64.6698 16.342 66.0903 15.6562 67.429 15.6562C69.9123 15.6562 70.5143 17.37 70.1583 19.7518L69.1682 26.3497H65.6911L66.4322 21.4069C66.592 20.3375 66.8938 18.5816 65.4236 18.5816C63.8181 18.5816 63.5222 20.1746 63.3379 21.4069L62.5961 26.3497H59.119L59.8601 21.4069C60.0325 20.2553 60.2956 18.5016 58.7488 18.5016C57.2006 18.5016 56.9382 20.2553 56.765 21.4069L56.0239 26.3497H52.5469L54.1004 15.9991H57.5759L57.3819 17.2893Z" fill="white"/>
<path d="M74.8687 19.6732C75.2389 18.6016 76.1647 18.038 77.1764 18.038C78.1128 18.038 78.876 18.6823 78.9001 19.6732H74.8687ZM81.8674 21.4077C82.3965 17.8758 80.7624 15.6562 77.3615 15.6562C74.1707 15.6562 71.6243 17.7351 71.1069 21.184C70.571 24.7567 72.7072 26.6941 75.9539 26.6941C78.1903 26.6941 80.5531 25.5832 81.4737 23.1421H78.1301C77.6461 23.8287 77.0702 24.0909 76.3273 24.0909C74.8932 24.0909 74.2696 23.2836 74.4934 21.7898H81.8102L81.8674 21.4077Z" fill="white"/>
<path d="M28.4628 15.0302L29.2834 9.56462C28.3728 9.13877 27.4422 8.8492 26.4381 8.73438L25.7632 13.1757C26.9078 13.3764 27.8986 14.0067 28.4628 15.0302Z" fill="white"/>
<path d="M27.5874 20.8711C26.6977 21.8161 25.504 22.4656 24.3192 22.664L23.6436 27.1069C24.6469 27.001 25.5768 26.7084 26.7668 26.3396L27.5874 20.8711Z" fill="white"/>
<path d="M23.6434 27.1064L24.319 22.6628C24.0738 22.7036 23.8277 22.731 23.5854 22.731C20.8977 22.731 19.3918 20.7314 19.8073 17.963C20.2154 15.2414 22.3211 13.1003 24.9642 13.1003C25.237 13.1003 25.5024 13.1314 25.7632 13.1766L26.4382 8.73526C26.1245 8.69971 25.8026 8.67969 25.4719 8.67969C23.1372 8.67969 20.6204 9.74986 18.7243 11.5169C16.8809 13.2395 15.6769 15.5435 15.3178 17.9393C14.9269 20.5463 15.4226 22.8258 16.9872 24.5714C18.4575 26.2214 20.5208 27.1531 22.8347 27.1531C23.1134 27.1531 23.3803 27.1338 23.6434 27.1064Z" fill="white"/>
<path d="M53.705 9.42171C54.3821 9.42171 54.7709 10.066 54.6765 10.7036C54.588 11.2998 53.9711 12.0597 53.3148 12.0597C52.6585 12.0597 52.266 11.2998 52.3538 10.7036C52.4482 10.066 53.0272 9.42171 53.705 9.42171ZM53.2025 12.8188C54.3576 12.8188 55.3031 11.8657 55.4704 10.7355C55.6323 9.63126 54.9724 8.66406 53.8165 8.66406C52.6615 8.66406 51.7145 9.63126 51.5517 10.7355C51.3837 11.8657 52.046 12.8188 53.2025 12.8188Z" fill="white"/>
<path d="M58.78 8.66016H59.3375L61.0143 11.4174H61.0262L61.4179 8.76456H62.1901L61.5948 12.7882H61.0373L59.3597 10.0303H59.3501L58.9532 12.7097H58.1816L58.78 8.66016Z" fill="white"/>
<path d="M65.6661 12.0413H66.7573L66.6584 12.7115H64.7927L65.3785 8.76562H66.1485L65.6661 12.0413Z" fill="white"/>
<path d="M70.3045 12.7107H69.5322L70.1157 8.76562H70.8895L70.3045 12.7107Z" fill="white"/>
<path d="M74.092 8.66016H74.6481L76.3257 11.4174H76.337L76.7284 8.76456H77.5007L76.9053 12.7882H76.349L74.6718 10.0303H74.6621L74.2645 12.7097H73.4929L74.092 8.66016Z" fill="white"/>
<path d="M81.363 9.43583L81.2343 10.3045H82.4643L82.3657 10.9741H81.1357L80.9769 12.0413H82.2543L82.1542 12.7115H80.1052L80.6901 8.76562H82.7375L82.6389 9.43583H81.363Z" fill="white"/>
<path d="M158.381 18.6104C158.118 20.0338 157.583 21.6742 156.776 23.5286L154.776 22.8829C155.6 20.9291 156.126 19.3228 156.354 18.0638L158.381 18.6104ZM161.943 17.3025H155.737C155.544 17.3025 155.447 17.204 155.447 17.0047V1.01609C155.465 0.834645 155.561 0.743555 155.737 0.743555H161.943C162.153 0.76059 162.259 0.851685 162.259 1.01609V17.0047C162.259 17.204 162.153 17.3025 161.943 17.3025ZM160.17 5.62999V2.77945C160.17 2.72908 160.135 2.70391 160.065 2.70391H157.614C157.562 2.70391 157.535 2.72908 157.535 2.77945V5.62999H160.17ZM160.17 7.59037H157.535V10.486H160.17V7.59037ZM157.535 12.4464V15.2428C157.535 15.3088 157.562 15.3421 157.614 15.3421H160.065C160.135 15.3421 160.17 15.3088 160.17 15.2428V12.4464H157.535ZM161.145 18.2127C161.741 19.2732 162.259 20.6063 162.697 22.2126L160.802 22.808C160.276 21.1195 159.766 19.819 159.276 18.9081L161.145 18.2127ZM166.466 23.4405H164.378V19.9871H162.956V18.2378H164.378V11.6266C164.378 11.3296 164.535 11.18 164.85 11.18H170.372V9.76178H163.276V8.01248H167.222V6.56462H164.223V4.81534H167.222V3.48819H163.486V1.73891H167.222V0.0999803H169.312V1.73891H173.762V0H175.851V1.73891H179.43V3.48819H175.851V4.81534H178.904V6.56462H175.851V8.01248H179.851V9.76178H172.46V11.18H178.074C178.408 11.18 178.576 11.3296 178.576 11.6266V18.2378H179.838V19.9871H178.576V21.3291C178.576 22.123 178.248 22.7281 177.597 23.1421C176.734 23.6553 175.241 23.7293 173.118 23.3657L173.012 21.2047C174.592 21.6017 175.565 21.6764 175.934 21.4276C176.302 21.1958 176.487 20.8981 176.487 20.5336V19.9871H166.466V23.4405ZM170.372 12.9293H166.622C166.518 12.9293 166.466 12.9797 166.466 13.0804V14.7689H170.372V12.9293ZM170.372 16.5189H166.466V18.2378H170.372V16.5189ZM173.762 3.48819H169.312V4.81534H173.762V3.48819ZM173.762 6.56462H169.312V8.01248H173.762V6.56462ZM172.46 14.7689H176.487V13.0804C176.487 12.9797 176.425 12.9293 176.302 12.9293H172.46V14.7689ZM176.487 16.5189H172.46V18.2378H176.487V16.5189Z" fill="white"/>
<path d="M186.604 6.89587H184.814C184.48 9.08212 184.182 10.5721 183.918 11.3668L181.682 11.0691C182.541 8.45182 182.971 5.50059 182.971 2.21532V0.898543H185.151V2.21532C185.134 2.82779 185.089 3.66466 185.02 4.72371H186.604V0.00390625H188.905V4.72371H191.221V6.89587H188.905V13.0561C189.694 12.6095 190.387 12.2037 190.984 11.8386L192.301 13.6027C191.316 14.2151 190.186 14.8202 188.905 15.4164V23.5896H186.604V16.4347C185.428 16.9161 184.226 17.3871 182.999 17.8507L181.761 15.8881C183.727 15.226 185.34 14.638 186.604 14.1248V6.89587ZM198.962 5.17621C198.84 6.2197 198.69 7.21358 198.515 8.15707C197.708 11.5853 195.515 15.0469 191.936 18.541L189.961 17.3737C192.523 14.9224 194.305 12.728 195.304 10.7906C195.97 9.44872 196.445 7.57792 196.725 5.17621H194.805C193.998 7.37873 193.121 9.15097 192.172 10.4922L189.961 9.67237C192.05 6.67517 193.304 3.47581 193.725 0.073522L195.989 0.371241C195.796 1.3155 195.611 2.1931 195.436 3.00479H205.805C205.98 3.00479 206.129 3.03738 206.252 3.10329C206.515 3.25141 206.647 3.62985 206.647 4.23862C206.629 7.96087 206.586 11.2624 206.515 14.144C206.357 18.9468 205.436 21.8944 203.753 22.9875C202.717 23.6659 200.743 23.6251 197.83 22.8638L197.725 20.3295C200.217 21.1241 201.787 21.2982 202.437 20.8509C202.892 20.5206 203.304 19.874 203.674 18.9142C204.006 17.8707 204.199 16.1725 204.253 13.8211C204.427 8.42219 204.427 5.59834 204.253 5.35025C204.182 5.23397 204.085 5.17621 203.963 5.17621H202.857C202.769 8.57182 201.963 11.9911 200.436 15.4357C198.909 18.3343 196.69 20.7768 193.778 22.7638L191.962 21.1745C197.488 18.127 200.357 12.7947 200.567 5.17621H198.962Z" fill="white"/>
<path d="M152.664 17.9126H129.109L129.462 16.6055H153.015L152.664 17.9126Z" fill="white"/>
<path d="M151.951 20.5244H128.396L128.746 19.2188H152.301L151.951 20.5244Z" fill="white"/>
<path d="M151.245 23.1477H127.69L128.042 21.8398H151.598L151.245 23.1477Z" fill="white"/>
<path d="M101.888 5.14914C102.008 4.70404 101.982 4.37893 101.817 4.17526C101.65 3.96937 101.336 3.86791 100.874 3.86791C100.375 3.86791 99.9989 3.96123 99.7453 4.1486C99.4908 4.33597 99.3011 4.66998 99.1717 5.14914L98.3625 8.49437H90.3858L90.7276 6.88879C91.3809 4.45298 92.5725 2.72814 94.3023 1.71353C96.0305 0.701138 98.5891 0.195312 101.978 0.195312C105.145 0.195312 107.379 0.690769 108.679 1.68391C109.979 2.6763 110.359 4.176 109.818 6.18523C109.187 8.53142 106.42 11.6019 101.522 15.3945C100.568 16.1462 99.8484 16.7157 99.3606 17.1016C97.603 18.4931 95.9109 19.9728 95.2605 20.8593C94.72 21.5962 94.4777 22.1502 94.4777 22.1502L105.58 22.1546L104.347 26.7329H85.332L86.4822 22.4582C86.7667 21.3962 87.3433 20.3432 88.2105 19.2952C89.0769 18.2458 90.6478 16.826 92.921 15.0353C93.4336 14.6376 94.1623 14.0726 95.1122 13.343C98.9609 10.3688 101.038 8.30927 101.344 7.17244L101.888 5.14914Z" fill="white"/>
<path d="M114.82 26.7261L116.486 20.5244H104.927L105.98 16.5992L117.505 0.746094H128.454L124.543 15.2884L117.947 15.2951L121.572 4.91341H120.799L113.087 16.5992H128.062L127.01 20.5244H123.137L121.467 26.7261H114.82Z" fill="white"/>
<path d="M129.812 15.2906L133.721 0.746094H140.831L138.954 7.72618H139.066C139.793 6.99447 140.613 6.45459 141.529 6.10577C142.447 5.75917 143.48 5.58587 144.635 5.58587C146.189 5.58587 147.276 5.88285 147.893 6.47902C148.511 7.07446 148.659 7.96093 148.342 9.14143L146.69 15.2906H139.521L140.767 10.653C140.896 10.1731 140.886 9.85018 140.738 9.67911C140.591 9.50878 140.277 9.42433 139.799 9.42433C139.355 9.42433 139.002 9.52363 138.736 9.72283C138.469 9.92353 138.28 10.2324 138.166 10.653L136.92 15.2906H129.812Z" fill="white"/>
</svg>
